<svg xmlns="http://www.w3.org/2000/svg" width="1024" height="768" viewBox="0 0 1024 768">
<defs>
<linearGradient id="gold" x1="0" y1="0" x2="1" y2="1"><stop stop-color="#fff4ad"/><stop offset=".5" stop-color="#e1b939"/><stop offset="1" stop-color="#735000"/></linearGradient>
<linearGradient id="bruin" x1="0" y1="0" x2="1" y2="1"><stop stop-color="#c88446"/><stop offset="1" stop-color="#61351f"/></linearGradient>
<linearGradient id="honey" x1="0" y1="0" x2="1" y2="1"><stop stop-color="#f5c64c"/><stop offset="1" stop-color="#8e5c13"/></linearGradient>
<linearGradient id="grizz" x1="0" y1="0" x2="1" y2="1"><stop stop-color="#8e6248"/><stop offset="1" stop-color="#3e2922"/></linearGradient>
<filter id="glow"><feGaussianBlur stdDeviation="4" result="b"/><feMerge><feMergeNode in="b"/><feMergeNode in="SourceGraphic"/></feMerge></filter>
</defs>
<rect width="1024" height="768" fill="none"/>
<!-- GOLDIE -->
<g transform="translate(0 0)"><rect x="8" y="24" width="112" height="92" rx="18" fill="#130f0a" stroke="#d4b245"/><circle cx="64" cy="49" r="25" fill="#9b6748"/><circle cx="53" cy="47" r="3"/><circle cx="75" cy="47" r="3"/><path d="M48 62 Q64 76 80 62" fill="none" stroke="url(#gold)" stroke-width="7"/><circle cx="93" cy="56" r="10" fill="none" stroke="#e8c74b" stroke-width="4"/><rect x="22" y="85" width="84" height="13" rx="5" fill="#292015"/><circle cx="41" cy="92" r="10" fill="#202020" stroke="#dfba45"/><circle cx="87" cy="92" r="10" fill="#202020" stroke="#dfba45"/></g>
<g transform="translate(128 0)"><rect x="8" y="24" width="112" height="92" rx="18" fill="#130f0a" stroke="#ffe06c"/><circle cx="64" cy="46" r="26" fill="#9b6748"/><circle cx="53" cy="44" r="3"/><circle cx="75" cy="44" r="3"/><path d="M48 59 Q64 77 80 59" fill="none" stroke="url(#gold)" stroke-width="7"/><circle cx="94" cy="54" r="10" fill="none" stroke="#ffe06c" stroke-width="4"/><rect x="22" y="85" width="84" height="13" rx="5" fill="#342714"/><circle cx="39" cy="92" r="11" fill="#202020" stroke="#ffe06c"/><circle cx="89" cy="92" r="11" fill="#202020" stroke="#ffe06c"/></g>
<!-- reusable bear silhouette: big body, round head, obvious ears/snouted face, chunky paws -->
<!-- BRUIN idle/run/fire -->
<g transform="translate(0 128)"><ellipse cx="64" cy="111" rx="36" ry="10" fill="#0007"/><ellipse cx="62" cy="76" rx="34" ry="31" fill="url(#bruin)"/><circle cx="61" cy="46" r="29" fill="url(#bruin)"/><circle cx="39" cy="25" r="12" fill="#754025"/><circle cx="83" cy="25" r="12" fill="#754025"/><circle cx="39" cy="25" r="6" fill="#b77743"/><circle cx="83" cy="25" r="6" fill="#b77743"/><ellipse cx="76" cy="55" rx="18" ry="14" fill="#dfb384"/><ellipse cx="86" cy="51" rx="6" ry="5" fill="#17100b"/><circle cx="52" cy="43" r="3.5" fill="#15100c"/><path d="M74 61 Q81 67 88 61" fill="none" stroke="#3b2318" stroke-width="2"/><path d="M38 79 L24 101 M84 80 L103 99" stroke="#6f3c24" stroke-width="14" stroke-linecap="round"/><rect x="78" y="61" width="38" height="13" rx="5" fill="#2b251d" stroke="#e0ba4b" stroke-width="2"/><path d="M44 91 Q62 103 82 91" fill="none" stroke="#e0ba4b" stroke-width="4"/></g>
<g transform="translate(128 128)"><ellipse cx="64" cy="111" rx="39" ry="10" fill="#0007"/><ellipse cx="58" cy="75" rx="34" ry="31" fill="url(#bruin)"/><circle cx="58" cy="44" r="29" fill="url(#bruin)"/><circle cx="36" cy="23" r="12" fill="#754025"/><circle cx="80" cy="23" r="12" fill="#754025"/><circle cx="36" cy="23" r="6" fill="#b77743"/><circle cx="80" cy="23" r="6" fill="#b77743"/><ellipse cx="73" cy="53" rx="18" ry="14" fill="#dfb384"/><ellipse cx="83" cy="49" rx="6" ry="5" fill="#17100b"/><circle cx="49" cy="41" r="3.5" fill="#15100c"/><path d="M37 79 L16 96 M79 79 L107 101" stroke="#6f3c24" stroke-width="14" stroke-linecap="round"/><rect x="74" y="59" width="41" height="13" rx="5" fill="#2b251d" stroke="#ffd95a" stroke-width="2"/><path d="M41 90 Q58 102 76 90" fill="none" stroke="#ffd95a" stroke-width="4"/></g>
<g transform="translate(256 128)"><ellipse cx="64" cy="111" rx="38" ry="10" fill="#0007"/><ellipse cx="57" cy="76" rx="35" ry="31" fill="url(#bruin)"/><circle cx="57" cy="45" r="30" fill="url(#bruin)"/><circle cx="35" cy="24" r="12" fill="#754025"/><circle cx="79" cy="24" r="12" fill="#754025"/><circle cx="35" cy="24" r="6" fill="#b77743"/><circle cx="79" cy="24" r="6" fill="#b77743"/><ellipse cx="72" cy="54" rx="18" ry="14" fill="#dfb384"/><ellipse cx="82" cy="50" rx="6" ry="5" fill="#17100b"/><circle cx="48" cy="42" r="3.5" fill="#15100c"/><path d="M36 80 L18 103 M79 80 L104 100" stroke="#6f3c24" stroke-width="14" stroke-linecap="round"/><rect x="72" y="59" width="44" height="14" rx="5" fill="#2b251d" stroke="#fff2a0" stroke-width="2"/><polygon points="116,59 128,66 116,73" fill="#fff2a0" filter="url(#glow)"/><path d="M40 91 Q57 104 75 91" fill="none" stroke="#ffe06a" stroke-width="4"/></g>
<!-- HONEY -->
<g transform="translate(0 256)"><ellipse cx="64" cy="111" rx="31" ry="9" fill="#0007"/><ellipse cx="63" cy="78" rx="29" ry="28" fill="url(#honey)"/><circle cx="63" cy="48" r="26" fill="url(#honey)"/><circle cx="43" cy="29" r="10" fill="#a66b17"/><circle cx="83" cy="29" r="10" fill="#a66b17"/><circle cx="43" cy="29" r="5" fill="#e6b54a"/><circle cx="83" cy="29" r="5" fill="#e6b54a"/><ellipse cx="77" cy="57" rx="15" ry="12" fill="#ffe1a3"/><ellipse cx="86" cy="53" rx="5" ry="4" fill="#19110b"/><circle cx="54" cy="45" r="3"/><path d="M43 81 L28 102 M81 82 L97 103" stroke="#a66c1b" stroke-width="11" stroke-linecap="round"/><rect x="76" y="61" width="31" height="9" rx="4" fill="#27221d" stroke="#f7d85e" stroke-width="2"/></g>
<g transform="translate(128 256)"><ellipse cx="64" cy="111" rx="33" ry="9" fill="#0007"/><ellipse cx="58" cy="77" rx="29" ry="28" fill="url(#honey)"/><circle cx="58" cy="47" r="26" fill="url(#honey)"/><circle cx="38" cy="28" r="10" fill="#a66b17"/><circle cx="78" cy="28" r="10" fill="#a66b17"/><circle cx="38" cy="28" r="5" fill="#e6b54a"/><circle cx="78" cy="28" r="5" fill="#e6b54a"/><ellipse cx="72" cy="56" rx="15" ry="12" fill="#ffe1a3"/><ellipse cx="81" cy="52" rx="5" ry="4" fill="#19110b"/><circle cx="49" cy="44" r="3"/><path d="M38 81 L17 96 M77 81 L106 101" stroke="#a66c1b" stroke-width="11" stroke-linecap="round"/><rect x="71" y="60" width="35" height="9" rx="4" fill="#27221d" stroke="#f7d85e" stroke-width="2"/></g>
<g transform="translate(256 256)"><ellipse cx="64" cy="111" rx="33" ry="9" fill="#0007"/><ellipse cx="56" cy="78" rx="30" ry="28" fill="url(#honey)"/><circle cx="56" cy="48" r="27" fill="url(#honey)"/><circle cx="36" cy="29" r="10" fill="#a66b17"/><circle cx="76" cy="29" r="10" fill="#a66b17"/><circle cx="36" cy="29" r="5" fill="#e6b54a"/><circle cx="76" cy="29" r="5" fill="#e6b54a"/><ellipse cx="70" cy="57" rx="15" ry="12" fill="#ffe1a3"/><ellipse cx="79" cy="53" rx="5" ry="4" fill="#19110b"/><circle cx="47" cy="45" r="3"/><path d="M36 82 L18 103 M75 82 L101 102" stroke="#a66c1b" stroke-width="11" stroke-linecap="round"/><rect x="69" y="61" width="39" height="10" rx="4" fill="#27221d" stroke="#fff1a0" stroke-width="2"/><polygon points="108,60 121,66 108,72" fill="#fff1a0" filter="url(#glow)"/></g>
<!-- GRIZZ -->
<g transform="translate(0 384)"><ellipse cx="64" cy="111" rx="34" ry="10" fill="#0007"/><ellipse cx="63" cy="77" rx="32" ry="30" fill="url(#grizz)"/><circle cx="63" cy="46" r="28" fill="url(#grizz)"/><circle cx="42" cy="25" r="11" fill="#4d3329"/><circle cx="84" cy="25" r="11" fill="#4d3329"/><circle cx="42" cy="25" r="5.5" fill="#7d5742"/><circle cx="84" cy="25" r="5.5" fill="#7d5742"/><ellipse cx="77" cy="55" rx="16" ry="13" fill="#c9a282"/><ellipse cx="87" cy="51" rx="5.5" ry="4.5" fill="#15100c"/><circle cx="53" cy="43" r="3.2"/><path d="M41 80 L25 102 M83 81 L101 102" stroke="#51362b" stroke-width="12" stroke-linecap="round"/><rect x="76" y="60" width="39" height="10" rx="4" fill="#262424" stroke="#c8ab4d" stroke-width="2"/></g>
<g transform="translate(128 384)"><ellipse cx="64" cy="111" rx="36" ry="10" fill="#0007"/><ellipse cx="59" cy="76" rx="32" ry="30" fill="url(#grizz)"/><circle cx="59" cy="45" r="28" fill="url(#grizz)"/><circle cx="38" cy="24" r="11" fill="#4d3329"/><circle cx="80" cy="24" r="11" fill="#4d3329"/><circle cx="38" cy="24" r="5.5" fill="#7d5742"/><circle cx="80" cy="24" r="5.5" fill="#7d5742"/><ellipse cx="73" cy="54" rx="16" ry="13" fill="#c9a282"/><ellipse cx="83" cy="50" rx="5.5" ry="4.5" fill="#15100c"/><circle cx="49" cy="42" r="3.2"/><path d="M38 80 L17 97 M79 80 L106 102" stroke="#51362b" stroke-width="12" stroke-linecap="round"/><rect x="72" y="59" width="43" height="10" rx="4" fill="#262424" stroke="#c8ab4d" stroke-width="2"/></g>
<g transform="translate(256 384)"><ellipse cx="64" cy="111" rx="36" ry="10" fill="#0007"/><ellipse cx="57" cy="77" rx="33" ry="30" fill="url(#grizz)"/><circle cx="57" cy="46" r="29" fill="url(#grizz)"/><circle cx="36" cy="25" r="11" fill="#4d3329"/><circle cx="78" cy="25" r="11" fill="#4d3329"/><circle cx="36" cy="25" r="5.5" fill="#7d5742"/><circle cx="78" cy="25" r="5.5" fill="#7d5742"/><ellipse cx="71" cy="55" rx="16" ry="13" fill="#c9a282"/><ellipse cx="81" cy="51" rx="5.5" ry="4.5" fill="#15100c"/><circle cx="47" cy="43" r="3.2"/><path d="M36 81 L18 103 M77 81 L102 103" stroke="#51362b" stroke-width="12" stroke-linecap="round"/><rect x="70" y="60" width="47" height="11" rx="4" fill="#262424" stroke="#fff1a0" stroke-width="2"/><polygon points="117,60 129,66 117,72" fill="#fff1a0" filter="url(#glow)"/></g>
<!-- enemies -->
<g transform="translate(0 512)"><ellipse cx="64" cy="103" rx="25" ry="7" fill="#0006"/><path d="M64 27 L105 59 L82 98 L64 84 L46 98 L23 59 Z" fill="#d65043"/><path d="M64 43 L84 59 L73 76 L64 70 L55 76 L44 59 Z" fill="#5a1715"/><circle cx="55" cy="57" r="4"/><circle cx="73" cy="57" r="4"/></g>
<g transform="translate(128 512)"><ellipse cx="64" cy="103" rx="25" ry="7" fill="#0006"/><rect x="28" y="28" width="72" height="72" rx="16" fill="#8668df"/><rect x="41" y="41" width="46" height="46" rx="10" fill="#2d2356"/><rect x="86" y="54" width="29" height="15" rx="5" fill="#bbaaff"/><circle cx="54" cy="58" r="4"/><circle cx="74" cy="58" r="4"/></g>
<g transform="translate(256 512)"><ellipse cx="64" cy="103" rx="26" ry="7" fill="#0006"/><path d="M64 19 80 41 105 36 94 60 109 80 82 82 64 106 46 82 19 80 34 60 23 36 48 41Z" fill="#e69731"/><circle cx="64" cy="62" r="20" fill="#7b4212"/><circle cx="56" cy="59" r="4"/><circle cx="72" cy="59" r="4"/></g>
<g transform="translate(384 512)"><ellipse cx="64" cy="104" rx="31" ry="8" fill="#0006"/><rect x="20" y="34" width="88" height="63" rx="17" fill="#679267"/><rect x="31" y="45" width="66" height="41" rx="10" fill="#304a30"/><rect x="16" y="53" width="17" height="28" rx="6" fill="#a1c39b"/><rect x="95" y="53" width="17" height="28" rx="6" fill="#a1c39b"/><circle cx="53" cy="61" r="5"/><circle cx="75" cy="61" r="5"/></g>
<!-- boss -->
<g transform="translate(0 640)"><ellipse cx="64" cy="106" rx="40" ry="10" fill="#0008"/><path d="M64 14 76 35 101 27 97 51 120 64 97 78 101 102 76 94 64 118 52 94 27 102 31 78 8 64 31 51 27 27 52 35Z" fill="url(#gold)"/><circle cx="64" cy="65" r="32" fill="#30240d" stroke="#ffe783" stroke-width="4"/><path d="M44 73 Q64 93 84 73" fill="none" stroke="url(#gold)" stroke-width="9"/><circle cx="51" cy="58" r="5" fill="#fff1a0"/><circle cx="77" cy="58" r="5" fill="#fff1a0"/></g>
</svg>